<svg width="45" height="46" viewBox="0 0 45 46" fill="none" xmlns="http://www.w3.org/2000/svg">
<path d="M1 9.8L8.16667 1H36.8333L44 9.8M1 9.8V40.6C1 41.767 1.50337 42.8861 2.39938 43.7113C3.29539 44.5364 4.51063 45 5.77778 45H39.2222C40.4894 45 41.7046 44.5364 42.6006 43.7113C43.4966 42.8861 44 41.767 44 40.6V9.8M1 9.8H44M32.0556 18.6C32.0556 20.9339 31.0488 23.1722 29.2568 24.8225C27.4648 26.4729 25.0343 27.4 22.5 27.4C19.9657 27.4 17.5352 26.4729 15.7432 24.8225C13.9512 23.1722 12.9444 20.9339 12.9444 18.6" stroke="black" stroke-width="2" stroke-linecap="round" stroke-linejoin="round"/>
</svg>
