<svg width="62" height="33" viewBox="0 0 62 33" fill="none" xmlns="http://www.w3.org/2000/svg">
<path fill-rule="evenodd" clip-rule="evenodd" d="M27.6667 25.7359C28.5871 25.7359 29.3333 24.9897 29.3333 24.0693C29.3333 23.1488 28.5871 22.4026 27.6667 22.4026C26.7462 22.4026 26 23.1488 26 24.0693C26 24.9897 26.7462 25.7359 27.6667 25.7359Z" stroke="black" stroke-width="2" stroke-linecap="round" stroke-linejoin="round"/>
<path fill-rule="evenodd" clip-rule="evenodd" d="M37.6667 25.7359C38.5871 25.7359 39.3333 24.9897 39.3333 24.0693C39.3333 23.1488 38.5871 22.4026 37.6667 22.4026C36.7462 22.4026 36 23.1488 36 24.0693C36 24.9897 36.7462 25.7359 37.6667 25.7359Z" stroke="black" stroke-width="2" stroke-linecap="round" stroke-linejoin="round"/>
<path d="M25.7237 11.5693H40.1654L38.7654 18.5609C38.6081 19.3528 37.9059 19.9181 37.0987 19.9026H28.2904C27.4483 19.9097 26.7331 19.2876 26.6237 18.4526L25.357 8.85259C25.2484 8.02392 24.5428 7.40385 23.707 7.40259H21.832" stroke="black" stroke-width="2" stroke-linecap="round" stroke-linejoin="round"/>
</svg>
