<svg width="25" height="26" viewBox="0 0 25 26" fill="none" xmlns="http://www.w3.org/2000/svg">
<path d="M1 5.8L4.83333 1H20.1667L24 5.8M1 5.8V22.6C1 23.2365 1.26925 23.847 1.7485 24.2971C2.22776 24.7471 2.87778 25 3.55556 25H21.4444C22.1222 25 22.7722 24.7471 23.2515 24.2971C23.7308 23.847 24 23.2365 24 22.6V5.8M1 5.8H24M17.6111 10.6C17.6111 11.873 17.0726 13.0939 16.1141 13.9941C15.1556 14.8943 13.8556 15.4 12.5 15.4C11.1444 15.4 9.84442 14.8943 8.8859 13.9941C7.92738 13.0939 7.38889 11.873 7.38889 10.6" stroke="#3A3A3A" stroke-width="2" stroke-linecap="round" stroke-linejoin="round"/>
</svg>
