<svg width="22" height="21" viewBox="0 0 22 21" fill="none" xmlns="http://www.w3.org/2000/svg">
<path fill-rule="evenodd" clip-rule="evenodd" d="M7.66667 19.6667C8.58714 19.6667 9.33333 18.9205 9.33333 18C9.33333 17.0795 8.58714 16.3333 7.66667 16.3333C6.74619 16.3333 6 17.0795 6 18C6 18.9205 6.74619 19.6667 7.66667 19.6667Z" stroke="black" stroke-width="2" stroke-linecap="round" stroke-linejoin="round"/>
<path fill-rule="evenodd" clip-rule="evenodd" d="M17.6667 19.6667C18.5871 19.6667 19.3333 18.9205 19.3333 18C19.3333 17.0795 18.5871 16.3333 17.6667 16.3333C16.7462 16.3333 16 17.0795 16 18C16 18.9205 16.7462 19.6667 17.6667 19.6667Z" stroke="black" stroke-width="2" stroke-linecap="round" stroke-linejoin="round"/>
<path d="M5.7237 5.50001H20.1654L18.7654 12.4917C18.6081 13.2835 17.9059 13.8488 17.0987 13.8333H8.29036C7.44827 13.8405 6.73314 13.2183 6.6237 12.3833L5.35703 2.78334C5.24838 1.95467 4.54279 1.33461 3.70703 1.33334H1.83203" stroke="black" stroke-width="2" stroke-linecap="round" stroke-linejoin="round"/>
</svg>
