<svg width="46" height="44" viewBox="0 0 46 44" fill="none" xmlns="http://www.w3.org/2000/svg">
<path d="M41.6072 4.7131C40.5321 3.53594 39.2556 2.60213 37.8506 1.96503C36.4456 1.32792 34.9397 1 33.4189 1C31.8981 1 30.3922 1.32792 28.9873 1.96503C27.5823 2.60213 26.3058 3.53594 25.2307 4.7131L22.9994 7.15499L20.7682 4.7131C18.5965 2.33643 15.6511 1.00123 12.5799 1.00123C9.50875 1.00123 6.56334 2.33643 4.39169 4.7131C2.22003 7.08978 1 10.3132 1 13.6744C1 17.0355 2.22003 20.2589 4.39169 22.6356L22.9994 43L41.6072 22.6356C42.6828 21.459 43.5361 20.062 44.1182 18.5244C44.7004 16.9868 45 15.3387 45 13.6744C45 12.01 44.7004 10.3619 44.1182 8.82433C43.5361 7.28672 42.6828 5.88971 41.6072 4.7131Z" stroke="black" stroke-width="2" stroke-linecap="round" stroke-linejoin="round"/>
</svg>
