<svg width="26" height="24" viewBox="0 0 26 24" fill="none" xmlns="http://www.w3.org/2000/svg">
<path d="M23.1494 2.94496C22.5629 2.32835 21.8667 1.83921 21.1003 1.50549C20.334 1.17177 19.5126 1 18.6831 1C17.8535 1 17.0321 1.17177 16.2658 1.50549C15.4994 1.83921 14.8032 2.32835 14.2167 2.94496L12.9997 4.22404L11.7826 2.94496C10.5981 1.70004 8.99152 1.00065 7.31633 1.00065C5.64114 1.00065 4.03455 1.70004 2.85001 2.94496C1.66547 4.18988 1 5.87836 1 7.63895C1 9.39954 1.66547 11.088 2.85001 12.3329L12.9997 23L23.1494 12.3329C23.7361 11.7166 24.2015 10.9849 24.519 10.1794C24.8366 9.37403 25 8.51076 25 7.63895C25 6.76714 24.8366 5.90387 24.519 5.09846C24.2015 4.29305 23.7361 3.56128 23.1494 2.94496Z" fill="#EF67F1" stroke="black" stroke-width="2" stroke-linecap="round" stroke-linejoin="round"/>
</svg>
