<svg width="62" height="33" viewBox="0 0 62 33" fill="none" xmlns="http://www.w3.org/2000/svg">
<path d="M39.7078 8.33748C39.2191 7.77693 38.6389 7.33226 38.0003 7.02887C37.3617 6.72549 36.6772 6.56934 35.9859 6.56934C35.2946 6.56934 34.6101 6.72549 33.9715 7.02887C33.3329 7.33226 32.7526 7.77693 32.2639 8.33748L31.2497 9.50028L30.2355 8.33748C29.2484 7.20573 27.9096 6.56992 26.5136 6.56992C25.1176 6.56992 23.7788 7.20573 22.7917 8.33748C21.8046 9.46923 21.25 11.0042 21.25 12.6047C21.25 14.2053 21.8046 15.7403 22.7917 16.872L31.2497 26.5693L39.7078 16.872C40.1967 16.3117 40.5846 15.6465 40.8492 14.9143C41.1138 14.1821 41.25 13.3973 41.25 12.6047C41.25 11.8122 41.1138 11.0274 40.8492 10.2952C40.5846 9.56301 40.1967 8.89777 39.7078 8.33748Z" stroke="black" stroke-width="2" stroke-linecap="round" stroke-linejoin="round"/>
</svg>
