<svg width="231" height="49" viewBox="0 0 231 49" fill="none" xmlns="http://www.w3.org/2000/svg">
<path d="M51.952 16.524C51.952 20.236 51.0347 23.372 49.2 25.932C47.408 28.492 44.3147 30.348 39.92 31.5C40.432 32.1827 40.7947 32.716 41.008 33.1L51.376 47.5H33.968C32.0907 44.0013 29.1253 39.052 25.072 32.652H15.664V47.5H0.56C0.901333 39.2227 1.072 31.4787 1.072 24.268C1.072 17.0573 0.901333 9.31333 0.56 1.036H15.664V1.1H28.784C37.4027 1.1 43.4187 2.48667 46.832 5.26C50.2453 8.03333 51.952 11.788 51.952 16.524ZM15.664 13.388V20.684H24.304C27.9307 20.684 30.6613 20.5773 32.496 20.364C34.3733 20.108 35.6747 19.724 36.4 19.212C37.1253 18.7 37.488 17.9533 37.488 16.972C37.488 16.0333 37.1467 15.308 36.464 14.796C35.7813 14.284 34.5013 13.9213 32.624 13.708C30.7467 13.4947 27.9733 13.388 24.304 13.388H15.664ZM74.724 35.788C90.9373 35.7027 102.692 35.468 109.988 35.084C109.689 36.8333 109.497 38.6467 109.412 40.524C109.369 42.3587 109.348 44.684 109.348 47.5H59.62C59.9613 39.2227 60.132 31.4787 60.132 24.268C60.132 17.0573 59.9613 9.31333 59.62 1.036H109.348V12.62H74.724V18.764C76.772 18.8067 79.8013 18.828 83.812 18.828C90.596 18.828 97.6147 18.7 104.868 18.444V29.452C97.6147 29.196 90.596 29.068 83.812 29.068C79.8013 29.068 76.772 29.0893 74.724 29.132V35.788ZM155.568 0.971996H171.44V26.444C171.355 32.716 169.2 37.9 164.976 41.996C160.795 46.092 153.733 48.14 143.792 48.14C133.723 48.14 126.832 46.1987 123.12 42.316C119.408 38.3907 117.595 33.2493 117.68 26.892V0.971996H133.552V25.868C133.552 27.7453 133.68 29.2813 133.936 30.476C134.235 31.628 135.131 32.716 136.624 33.74C138.16 34.764 140.613 35.276 143.984 35.276C147.653 35.276 150.341 34.764 152.048 33.74C153.755 32.6733 154.757 31.5 155.056 30.22C155.397 28.94 155.568 27.2973 155.568 25.292V0.971996ZM208.171 1.1C216.662 1.1 222.571 2.61466 225.899 5.644C229.227 8.63066 230.891 12.8547 230.891 18.316C230.891 22.0707 230.23 25.2707 228.907 27.916C227.584 30.5187 225.259 32.5667 221.931 34.06C218.603 35.5107 214.016 36.236 208.171 36.236H194.859V47.5H179.115C179.456 39.2227 179.627 31.4787 179.627 24.268C179.627 17.0573 179.456 9.31333 179.115 1.036H194.859V1.1H208.171ZM203.691 23.884C207.232 23.884 209.878 23.756 211.627 23.5C213.419 23.2013 214.656 22.6893 215.339 21.964C216.064 21.2387 216.427 20.172 216.427 18.764C216.427 17.356 216.086 16.3107 215.403 15.628C214.763 14.9027 213.547 14.412 211.755 14.156C210.006 13.9 207.318 13.772 203.691 13.772H194.859V23.884H203.691Z" fill="black"/>
</svg>
