<svg width="20" height="20" viewBox="0 0 20 20" fill="none" xmlns="http://www.w3.org/2000/svg">
<path d="M18.8966 12L16.5517 9.16667L17.3517 8.2C17.554 7.95556 17.8115 7.83333 18.1241 7.83333C18.4368 7.83333 18.6943 7.95556 18.8966 8.2L19.6966 9.16667C19.8989 9.41111 20 9.72222 20 10.1C20 10.4778 19.8989 10.7889 19.6966 11.0333L18.8966 12ZM9.93103 20V17.1667L15.7793 10.1L18.1241 12.9333L12.2759 20H9.93103ZM0 13.3333V10.6667H7.72414V13.3333H0ZM0 8V5.33333H12.1379V8H0ZM0 2.66667V0H12.1379V2.66667H0Z" fill="#222222"/>
</svg>
