<svg width="25" height="27" viewBox="0 0 25 27" fill="none" xmlns="http://www.w3.org/2000/svg">
<path d="M1 6.3L4.83333 1.5H20.1667L24 6.3M1 6.3V23.1C1 23.7365 1.26925 24.347 1.7485 24.7971C2.22776 25.2471 2.87778 25.5 3.55556 25.5H21.4444C22.1222 25.5 22.7722 25.2471 23.2515 24.7971C23.7308 24.347 24 23.7365 24 23.1V6.3M1 6.3H24M17.6111 11.1C17.6111 12.373 17.0726 13.5939 16.1141 14.4941C15.1556 15.3943 13.8556 15.9 12.5 15.9C11.1444 15.9 9.84442 15.3943 8.8859 14.4941C7.92738 13.5939 7.38889 12.373 7.38889 11.1" stroke="black" stroke-width="2" stroke-linecap="round" stroke-linejoin="round"/>
</svg>
