<svg width="61" height="33" viewBox="0 0 61 33" fill="none" xmlns="http://www.w3.org/2000/svg">
<path d="M39.732 14.9533C39.732 16.3453 39.388 17.5213 38.7 18.4813C38.028 19.4413 36.868 20.1373 35.22 20.5693C35.412 20.8253 35.548 21.0253 35.628 21.1693L39.516 26.5693H32.988C32.284 25.2573 31.172 23.4013 29.652 21.0013H26.124V26.5693H20.46C20.588 23.4653 20.652 20.5613 20.652 17.8573C20.652 15.1533 20.588 12.2493 20.46 9.14534H26.124V9.16934H31.044C34.276 9.16934 36.532 9.68934 37.812 10.7293C39.092 11.7693 39.732 13.1773 39.732 14.9533ZM26.124 13.7773V16.5133H29.364C30.724 16.5133 31.748 16.4733 32.436 16.3933C33.14 16.2973 33.628 16.1533 33.9 15.9613C34.172 15.7693 34.308 15.4893 34.308 15.1213C34.308 14.7693 34.18 14.4973 33.924 14.3053C33.668 14.1133 33.188 13.9773 32.484 13.8973C31.78 13.8173 30.74 13.7773 29.364 13.7773H26.124Z" fill="black"/>
</svg>
