<svg width="346" height="65" viewBox="0 0 346 65" fill="none" xmlns="http://www.w3.org/2000/svg">
<path d="M8.136 50C6.728 50 5.42667 49.6587 4.232 48.976C3.08 48.2507 2.14133 47.312 1.416 46.16C0.733334 44.9653 0.392 43.664 0.392 42.256V12.88H5.64V42.256C5.64 42.9387 5.87467 43.536 6.344 44.048C6.856 44.5173 7.45333 44.752 8.136 44.752H30.408C31.0907 44.752 31.688 44.5173 32.2 44.048C32.712 43.536 32.968 42.9387 32.968 42.256V12.88H38.216V42.256C38.216 43.664 37.8533 44.9653 37.128 46.16C36.4453 47.312 35.5067 48.2507 34.312 48.976C33.16 49.6587 31.8587 50 30.408 50H8.136ZM55.8585 64.72V12.88H85.9385C87.3465 12.88 88.6265 13.2427 89.7785 13.968C90.9732 14.6507 91.9118 15.5893 92.5945 16.784C93.3198 17.936 93.6825 19.216 93.6825 20.624V42.256C93.6825 43.664 93.3198 44.9653 92.5945 46.16C91.9118 47.312 90.9732 48.2507 89.7785 48.976C88.6265 49.6587 87.3465 50 85.9385 50H61.1065V64.72H55.8585ZM63.6665 44.752H85.9385C86.6212 44.752 87.1972 44.5173 87.6665 44.048C88.1785 43.536 88.4345 42.9387 88.4345 42.256V20.624C88.4345 19.9413 88.1785 19.3653 87.6665 18.896C87.1972 18.384 86.6212 18.128 85.9385 18.128H63.6665C62.9838 18.128 62.3865 18.384 61.8745 18.896C61.3625 19.3653 61.1065 19.9413 61.1065 20.624V42.256C61.1065 42.9387 61.3625 43.536 61.8745 44.048C62.3865 44.5173 62.9838 44.752 63.6665 44.752ZM117.751 50C116.343 50 115.041 49.6587 113.847 48.976C112.695 48.2507 111.756 47.312 111.031 46.16C110.348 44.9653 110.007 43.664 110.007 42.256V20.624C110.007 19.216 110.348 17.936 111.031 16.784C111.756 15.5893 112.695 14.6507 113.847 13.968C115.041 13.2427 116.343 12.88 117.751 12.88H147.703V18.128H117.751C117.068 18.128 116.471 18.384 115.959 18.896C115.489 19.3653 115.255 19.9413 115.255 20.624V42.256C115.255 42.9387 115.489 43.536 115.959 44.048C116.471 44.5173 117.068 44.752 117.751 44.752H147.831V50H117.751ZM172.619 64.72V59.408H195.787C196.469 59.408 197.045 59.152 197.515 58.64C198.027 58.1707 198.283 57.5947 198.283 56.912V50H173.515C172.107 50 170.805 49.6587 169.611 48.976C168.459 48.2507 167.52 47.312 166.795 46.16C166.112 44.9653 165.771 43.664 165.771 42.256V13.008H171.019V42.256C171.019 42.9387 171.253 43.536 171.723 44.048C172.235 44.5173 172.832 44.752 173.515 44.752H195.787C196.469 44.752 197.045 44.5173 197.515 44.048C198.027 43.536 198.283 42.9387 198.283 42.256V13.008H203.531V56.912C203.531 58.3627 203.189 59.664 202.507 60.816C201.824 62.0107 200.885 62.9493 199.691 63.632C198.539 64.3573 197.237 64.72 195.787 64.72H172.619ZM228.493 50C227.085 50 225.784 49.6587 224.589 48.976C223.437 48.2507 222.498 47.312 221.773 46.16C221.09 44.9653 220.749 43.664 220.749 42.256V20.624C220.749 19.216 221.09 17.936 221.773 16.784C222.498 15.5893 223.437 14.6507 224.589 13.968C225.784 13.2427 227.085 12.88 228.493 12.88H258.445V18.128H228.493C227.81 18.128 227.213 18.384 226.701 18.896C226.232 19.3653 225.997 19.9413 225.997 20.624V42.256C225.997 42.9387 226.232 43.536 226.701 44.048C227.213 44.5173 227.81 44.752 228.493 44.752H258.573V50H228.493ZM284.897 50C283.489 50 282.188 49.6587 280.993 48.976C279.841 48.2507 278.902 47.312 278.177 46.16C277.494 44.9653 277.153 43.664 277.153 42.256V0.719997H282.401V42.256C282.401 42.9387 282.636 43.536 283.105 44.048C283.617 44.5173 284.214 44.752 284.897 44.752H291.169V50H284.897ZM315.048 50C313.64 50 312.339 49.6587 311.144 48.976C309.992 48.2507 309.053 47.312 308.328 46.16C307.645 44.9653 307.304 43.664 307.304 42.256V20.624C307.304 19.216 307.645 17.936 308.328 16.784C309.053 15.5893 309.992 14.6507 311.144 13.968C312.339 13.2427 313.64 12.88 315.048 12.88H337.32C338.771 12.88 340.072 13.2427 341.224 13.968C342.419 14.6507 343.357 15.5893 344.04 16.784C344.765 17.936 345.128 19.216 345.128 20.624V34.064H312.552V42.256C312.552 42.9387 312.787 43.536 313.256 44.048C313.768 44.5173 314.365 44.752 315.048 44.752H345.128V50H315.048ZM312.552 28.816H339.816V20.624C339.816 19.9413 339.56 19.3653 339.048 18.896C338.579 18.384 338.003 18.128 337.32 18.128H315.048C314.365 18.128 313.768 18.384 313.256 18.896C312.787 19.3653 312.552 19.9413 312.552 20.624V28.816Z" fill="black"/>
</svg>
