<svg width="279" height="65" viewBox="0 0 279 65" fill="none" xmlns="http://www.w3.org/2000/svg">
<path d="M12.016 47.768C9.584 47.768 7.70667 46.9787 6.384 45.4C5.06133 43.7787 4.4 41.24 4.4 37.784V21.144L5.36 22.104L1.392 21.4C1.09333 21.3573 0.858667 21.1653 0.688 20.824C0.517334 20.44 0.432 19.8853 0.432 19.16C2.05333 18.9467 3.26933 18.7973 4.08 18.712C4.93333 18.584 5.616 18.52 6.128 18.52C7.28 18.52 8.13333 18.7973 8.688 19.352C9.28533 19.9067 9.584 20.7813 9.584 21.976V37.656C9.584 39.96 10.032 41.6667 10.928 42.776C11.8667 43.8427 13.232 44.376 15.024 44.376C16.176 44.376 17.2427 44.184 18.224 43.8C19.248 43.416 20.144 42.904 20.912 42.264C21.7227 41.5813 22.4053 40.8347 22.96 40.024L22.512 41.112V21.144L23.472 22.104L19.44 21.4C19.1413 21.3573 18.9067 21.1653 18.736 20.824C18.608 20.44 18.544 19.8853 18.544 19.16C20.1653 18.9467 21.3813 18.7973 22.192 18.712C23.0453 18.584 23.7067 18.52 24.176 18.52C25.3707 18.52 26.2453 18.7973 26.8 19.352C27.3547 19.9067 27.632 20.7813 27.632 21.976V42.392C27.632 43.1173 27.7813 43.672 28.08 44.056C28.4213 44.44 28.8693 44.632 29.424 44.632C29.8933 44.632 30.384 44.5253 30.896 44.312C31.4507 44.056 31.9413 43.7573 32.368 43.416L32.88 45.144C32.1547 45.9547 31.2587 46.5947 30.192 47.064C29.1253 47.5333 28.1013 47.768 27.12 47.768C25.7973 47.768 24.752 47.3413 23.984 46.488C23.216 45.592 22.832 44.3333 22.832 42.712H22.512C19.6107 46.0827 16.112 47.768 12.016 47.768ZM49.2155 63.448C49.2155 62.168 49.5568 61.4 50.2395 61.144L53.8875 59.992L53.1835 61.08V20.824L53.9515 21.784L50.1755 21.08C49.5355 20.952 49.2155 20.2053 49.2155 18.84C50.8368 18.584 52.0528 18.4133 52.8635 18.328C53.7168 18.2 54.3995 18.136 54.9115 18.136C56.0208 18.136 56.8102 18.3707 57.2795 18.84C57.7915 19.3093 58.0475 20.056 58.0475 21.08V23.96L57.8555 23.768H58.3675C59.7328 21.7627 61.3968 20.2053 63.3595 19.096C65.3222 17.9867 67.3275 17.432 69.3755 17.432C71.5088 17.432 73.3435 17.9867 74.8795 19.096C76.4155 20.2053 77.6102 21.784 78.4635 23.832C79.3168 25.8373 79.7435 28.2267 79.7435 31C79.7435 34.3707 79.1248 37.3147 77.8875 39.832C76.6928 42.3493 74.9862 44.312 72.7675 45.72C70.5488 47.0853 67.9248 47.768 64.8955 47.768C63.6582 47.768 62.3995 47.64 61.1195 47.384C59.8395 47.128 58.6235 46.7653 57.4715 46.296L58.3675 45.784V60.76L57.5995 59.928L62.7835 61.08C62.7835 61.6773 62.6982 62.1467 62.5275 62.488C62.3568 62.872 62.0368 63.192 61.5675 63.448H49.2155ZM64.5115 45.272C67.8822 45.272 70.3355 44.2267 71.8715 42.136C73.4502 40.0453 74.2395 36.7387 74.2395 32.216C74.2395 28.2907 73.6422 25.4107 72.4475 23.576C71.2955 21.7413 69.4822 20.824 67.0075 20.824C65.7275 20.824 64.5328 21.08 63.4235 21.592C62.3568 22.0613 61.3542 22.7653 60.4155 23.704C59.4768 24.6 58.5595 25.688 57.6635 26.968L58.3035 25.496V44.184L57.6635 43.032C59.1568 43.8427 60.3728 44.4187 61.3115 44.76C62.2928 45.1013 63.3595 45.272 64.5115 45.272ZM109.228 47.768C106.582 47.768 104.257 47.192 102.252 46.04C100.289 44.888 98.7742 43.2667 97.7075 41.176C96.6408 39.0853 96.1075 36.6107 96.1075 33.752C96.1075 30.552 96.7262 27.736 97.9635 25.304C99.2435 22.8293 100.993 20.9093 103.212 19.544C105.43 18.136 107.948 17.432 110.764 17.432C112.684 17.432 114.433 17.752 116.012 18.392C117.59 18.9893 118.828 19.8213 119.724 20.888C120.662 21.9547 121.132 23.128 121.132 24.408C121.132 25.2613 120.876 25.944 120.364 26.456C119.894 26.9253 119.233 27.16 118.38 27.16C117.996 27.16 117.633 27.1173 117.292 27.032C116.95 26.904 116.609 26.7547 116.268 26.584C116.268 24.3227 115.734 22.5947 114.668 21.4C113.644 20.2053 112.129 19.608 110.124 19.608C107.393 19.608 105.302 20.696 103.852 22.872C102.401 25.0053 101.676 28.0773 101.676 32.088C101.676 36.2693 102.465 39.448 104.044 41.624C105.665 43.7573 108.054 44.824 111.212 44.824C112.918 44.824 114.561 44.4827 116.14 43.8C117.761 43.0747 119.233 42.0507 120.556 40.728L121.388 42.264C120.492 43.3733 119.382 44.3547 118.06 45.208C116.78 46.0187 115.372 46.6373 113.836 47.064C112.342 47.5333 110.806 47.768 109.228 47.768ZM139.363 64.28C138.168 64.28 137.23 64.024 136.547 63.512C135.907 63.0427 135.587 62.4453 135.587 61.72C135.587 61.464 135.63 61.1653 135.715 60.824C135.8 60.4827 135.928 60.1627 136.099 59.864H137.443C139.363 59.864 140.963 59.6293 142.243 59.16C143.523 58.7333 144.632 58.008 145.571 56.984C146.51 55.96 147.384 54.552 148.195 52.76C149.048 51.0107 149.966 48.8133 150.947 46.168L150.691 49.176L139.491 21.336L140.643 22.168L135.843 21.016C135.843 20.376 135.928 19.9067 136.099 19.608C136.27 19.2667 136.568 18.9467 136.995 18.648H148.643C148.643 20.0133 148.302 20.8027 147.619 21.016L143.779 22.104L144.675 21.016L153.571 43.352H152.099L160.547 21.336L160.931 22.168L156.451 21.016C156.451 20.248 156.515 19.7147 156.643 19.416C156.814 19.0747 157.134 18.8187 157.603 18.648H167.267C167.267 19.3733 167.182 19.928 167.011 20.312C166.84 20.6533 166.584 20.8667 166.243 20.952L162.595 22.104L163.747 20.952L153.507 47.576C151.544 52.6533 149.326 56.7067 146.851 59.736C144.376 62.7653 141.88 64.28 139.363 64.28ZM193.595 47.768C190.95 47.768 188.624 47.192 186.619 46.04C184.656 44.888 183.142 43.2667 182.075 41.176C181.008 39.0853 180.475 36.6107 180.475 33.752C180.475 30.552 181.094 27.736 182.331 25.304C183.611 22.8293 185.36 20.9093 187.579 19.544C189.798 18.136 192.315 17.432 195.131 17.432C197.051 17.432 198.8 17.752 200.379 18.392C201.958 18.9893 203.195 19.8213 204.091 20.888C205.03 21.9547 205.499 23.128 205.499 24.408C205.499 25.2613 205.243 25.944 204.731 26.456C204.262 26.9253 203.6 27.16 202.747 27.16C202.363 27.16 202 27.1173 201.659 27.032C201.318 26.904 200.976 26.7547 200.635 26.584C200.635 24.3227 200.102 22.5947 199.035 21.4C198.011 20.2053 196.496 19.608 194.491 19.608C191.76 19.608 189.67 20.696 188.219 22.872C186.768 25.0053 186.043 28.0773 186.043 32.088C186.043 36.2693 186.832 39.448 188.411 41.624C190.032 43.7573 192.422 44.824 195.579 44.824C197.286 44.824 198.928 44.4827 200.507 43.8C202.128 43.0747 203.6 42.0507 204.923 40.728L205.755 42.264C204.859 43.3733 203.75 44.3547 202.427 45.208C201.147 46.0187 199.739 46.6373 198.203 47.064C196.71 47.5333 195.174 47.768 193.595 47.768ZM222.45 47C222.45 46.2747 222.536 45.7413 222.706 45.4C222.877 45.0587 223.133 44.824 223.474 44.696L227.314 43.48L226.61 44.376V2.712L227.378 3.672L223.41 2.968C222.77 2.84 222.45 2.09333 222.45 0.727997C223.858 0.514664 225.053 0.343998 226.034 0.216C227.016 0.0879987 227.954 0.0239983 228.85 0.0239983C230.813 0.0239983 231.794 1.26133 231.794 3.736V44.248L231.026 43.416L236.21 44.632C236.21 45.272 236.125 45.7627 235.954 46.104C235.826 46.4027 235.528 46.7013 235.058 47H222.45ZM265.646 47.768C263.043 47.768 260.76 47.192 258.798 46.04C256.878 44.8453 255.384 43.2027 254.318 41.112C253.251 39.0213 252.718 36.6107 252.718 33.88C252.718 30.7653 253.358 27.9707 254.638 25.496C255.96 23.0213 257.71 21.0587 259.886 19.608C262.062 18.1573 264.43 17.432 266.99 17.432C269.208 17.432 271.128 17.944 272.75 18.968C274.414 19.9493 275.715 21.336 276.654 23.128C277.592 24.92 278.062 26.9893 278.062 29.336C278.062 30.1467 277.912 30.7013 277.614 31C277.315 31.256 276.974 31.384 276.59 31.384H256.43V29.4L273.838 28.952L273.134 29.656C273.219 27.608 272.963 25.8373 272.366 24.344C271.811 22.8507 271 21.6987 269.934 20.888C268.91 20.0347 267.694 19.608 266.286 19.608C263.939 19.608 262.019 20.696 260.526 22.872C259.032 25.048 258.286 28.12 258.286 32.088C258.286 34.648 258.648 36.888 259.374 38.808C260.142 40.6853 261.251 42.1573 262.702 43.224C264.152 44.2907 265.902 44.824 267.95 44.824C269.656 44.824 271.299 44.3973 272.878 43.544C274.456 42.648 275.864 41.4107 277.102 39.832L277.934 41.432C277.038 42.712 275.928 43.8427 274.606 44.824C273.283 45.7627 271.854 46.488 270.318 47C268.824 47.512 267.267 47.768 265.646 47.768Z" fill="black"/>
</svg>
