<svg width="300" height="82" viewBox="0 0 300 82" fill="none" xmlns="http://www.w3.org/2000/svg">
<path d="M23.16 22.944C26.8293 22.944 28.664 24.8427 28.664 28.64C28.664 29.3227 28.2587 32.3307 27.448 37.664C26.6373 42.9547 26.232 47.4987 26.232 51.296C26.232 55.0933 26.6373 58.4427 27.448 61.344C24.8453 60.32 23.032 58.8693 22.008 56.992C21.0267 55.1147 20.536 52.7893 20.536 50.016C20.536 48.9493 20.7707 46.5387 21.24 42.784C19.96 47.648 17.976 51.744 15.288 55.072C12.6 58.3573 10.104 60 7.8 60C2.936 60 0.504 56.4587 0.504 49.376C0.504 47.0293 0.845334 43.7653 1.528 39.584C2.25333 35.36 2.616 32.16 2.616 29.984C2.616 27.808 2.31733 25.6107 1.72 23.392C4.45067 23.392 6.49867 23.8613 7.864 24.8C9.22933 25.7387 9.912 27.552 9.912 30.24C9.912 31.6907 9.464 34.6773 8.568 39.2C7.672 43.7227 7.224 47.072 7.224 49.248C7.224 52.4053 8.20533 53.984 10.168 53.984C11.7893 53.984 13.4747 52.7253 15.224 50.208C17.016 47.648 18.5093 44.3413 19.704 40.288C20.8987 36.2347 21.496 32.224 21.496 28.256C21.496 26.464 21.368 24.736 21.112 23.072C22.0507 22.9867 22.7333 22.944 23.16 22.944ZM59.4125 36.896C61.1618 32.928 63.3592 29.8987 66.0045 27.808C68.6925 25.6747 71.3378 24.608 73.9405 24.608C76.5858 24.608 78.7618 25.6747 80.4685 27.808C82.1752 29.8987 83.0285 32.9493 83.0285 36.96C83.0285 43.3173 81.3432 48.7573 77.9725 53.28C74.6445 57.76 70.6338 60 65.9405 60C64.2765 60 62.5698 59.6587 60.8205 58.976C64.0205 58.336 66.8152 56.7147 69.2045 54.112C71.6365 51.4667 73.3858 48.6507 74.4525 45.664C75.5618 42.6347 76.1165 39.9253 76.1165 37.536C76.1165 35.104 75.6898 33.248 74.8365 31.968C73.9832 30.688 72.7672 30.048 71.1885 30.048C68.2445 30.048 65.6205 31.6907 63.3165 34.976C61.0125 38.2187 59.2418 42.6347 58.0045 48.224C56.7672 53.8133 56.1485 59.5733 56.1485 65.504C56.1485 71.4773 56.5752 76.6613 57.4285 81.056C54.8258 80.928 52.7778 80.352 51.2845 79.328C49.7912 78.304 49.0445 76.4053 49.0445 73.632C49.0445 72.608 49.6845 67.2107 50.9645 57.44C52.2872 47.6267 52.9485 40.0747 52.9485 34.784C52.9485 29.4933 52.6285 25.0347 51.9885 21.408C54.8045 22.2187 56.7458 23.8827 57.8125 26.4C58.8792 28.8747 59.4125 32.3733 59.4125 36.896ZM115.119 29.408C113.455 31.3707 112.196 33.8027 111.343 36.704C110.532 39.5627 110.127 42.6347 110.127 45.92C110.127 49.2053 110.682 51.8507 111.791 53.856C112.9 55.8613 114.372 56.864 116.207 56.864C118.084 56.864 119.919 56.3093 121.711 55.2C123.503 54.0907 125.018 52.5547 126.255 50.592C127.834 50.8053 128.623 51.3813 128.623 52.32C127.471 54.4533 126.02 56.2027 124.271 57.568C122.564 58.9333 120.964 59.8293 119.471 60.256C117.978 60.7253 116.463 60.96 114.927 60.96C111.642 60.96 108.868 59.68 106.607 57.12C104.346 54.5173 103.215 50.7627 103.215 45.856C103.215 39.6267 104.9 34.272 108.271 29.792C111.642 25.312 116.122 23.072 121.711 23.072C124.783 23.072 127.108 23.8827 128.687 25.504C130.266 27.0827 131.055 28.9387 131.055 31.072C131.055 33.1627 130.458 34.9547 129.263 36.448C128.111 37.9413 126.618 38.688 124.783 38.688C123.631 38.688 122.65 38.496 121.839 38.112C122.522 37.344 123.098 36.2773 123.567 34.912C124.079 33.504 124.335 32.1387 124.335 30.816C124.335 27.872 123.119 26.4 120.687 26.4C118.639 26.4 116.783 27.4027 115.119 29.408ZM177.514 27.488C177.514 28.9813 176.874 31.0507 175.594 33.696C174.314 36.3413 172.757 39.2427 170.922 42.4C169.087 45.5573 167.253 48.928 165.418 52.512C163.583 56.0533 162.026 59.936 160.746 64.16C159.466 68.4267 158.826 72.5013 158.826 76.384C158.826 78.304 158.975 80.1387 159.274 81.888C156.543 81.248 154.687 80.288 153.706 79.008C152.767 77.7707 152.298 76.2987 152.298 74.592C152.298 72.16 153.791 67.5307 156.778 60.704C156.138 58.0587 155.349 53.92 154.41 48.288C153.471 42.6133 152.511 37.6853 151.53 33.504C150.591 29.3227 149.503 26.208 148.266 24.16C149.887 23.0507 151.274 22.496 152.426 22.496C154.645 22.496 156.159 23.648 156.97 25.952C157.781 28.2133 158.485 32.5653 159.082 39.008C159.722 45.4507 160.362 50.1867 161.002 53.216C169.365 37.472 173.546 26.9547 173.546 21.664C176.191 23.456 177.514 25.3973 177.514 27.488ZM205.737 29.408C204.073 31.3707 202.814 33.8027 201.961 36.704C201.15 39.5627 200.745 42.6347 200.745 45.92C200.745 49.2053 201.299 51.8507 202.409 53.856C203.518 55.8613 204.99 56.864 206.825 56.864C208.702 56.864 210.537 56.3093 212.329 55.2C214.121 54.0907 215.635 52.5547 216.873 50.592C218.451 50.8053 219.241 51.3813 219.241 52.32C218.089 54.4533 216.638 56.2027 214.889 57.568C213.182 58.9333 211.582 59.8293 210.089 60.256C208.595 60.7253 207.081 60.96 205.545 60.96C202.259 60.96 199.486 59.68 197.225 57.12C194.963 54.5173 193.833 50.7627 193.833 45.856C193.833 39.6267 195.518 34.272 198.889 29.792C202.259 25.312 206.739 23.072 212.329 23.072C215.401 23.072 217.726 23.8827 219.305 25.504C220.883 27.0827 221.673 28.9387 221.673 31.072C221.673 33.1627 221.075 34.9547 219.881 36.448C218.729 37.9413 217.235 38.688 215.401 38.688C214.249 38.688 213.267 38.496 212.457 38.112C213.139 37.344 213.715 36.2773 214.185 34.912C214.697 33.504 214.953 32.1387 214.953 30.816C214.953 27.872 213.737 26.4 211.305 26.4C209.257 26.4 207.401 27.4027 205.737 29.408ZM241.635 55.328C241.593 54.6453 241.571 53.5573 241.571 52.064C241.571 50.528 242.275 44.0427 243.683 32.608C245.134 21.1733 245.859 13.3227 245.859 9.056C245.859 4.78933 245.603 2.016 245.091 0.735996C247.481 1.632 249.166 2.95466 250.147 4.704C251.129 6.45333 251.619 8.56533 251.619 11.04C251.619 13.5147 251.001 19.9147 249.763 30.24C248.526 40.5653 247.907 48.8853 247.907 55.2C247.907 56.5653 247.993 58.4853 248.163 60.96C245.817 60.7893 244.153 60.2347 243.171 59.296C242.361 58.528 241.849 57.2053 241.635 55.328ZM288.665 26.4C286.105 26.4 283.929 27.872 282.137 30.816C280.387 33.76 279.214 37.216 278.617 41.184H280.409C282.67 41.184 284.633 40.864 286.297 40.224C287.961 39.584 289.241 38.752 290.137 37.728C291.843 35.7653 292.697 33.5467 292.697 31.072C292.697 29.664 292.355 28.5333 291.673 27.68C291.033 26.8267 290.03 26.4 288.665 26.4ZM297.689 52.32C295.726 55.52 293.571 57.76 291.225 59.04C288.878 60.32 286.147 60.96 283.033 60.96C279.961 60.96 277.273 59.5947 274.969 56.864C272.665 54.1333 271.513 50.2933 271.513 45.344C271.513 39.712 273.027 34.6773 276.057 30.24C277.55 28.1067 279.491 26.3787 281.881 25.056C284.313 23.7333 286.979 23.072 289.881 23.072C296.281 23.072 299.481 26.1653 299.481 32.352C299.481 36.064 298.03 38.9867 295.129 41.12C292.27 43.2107 288.942 44.256 285.145 44.256C282.627 44.256 280.366 44.0213 278.361 43.552C278.318 43.9787 278.297 44.64 278.297 45.536C278.297 53.088 280.537 56.864 285.017 56.864C289.241 56.864 292.675 54.7733 295.321 50.592C296.899 50.8053 297.689 51.3813 297.689 52.32Z" fill="black"/>
</svg>
