<svg width="292" height="64" viewBox="0 0 292 64" fill="none" xmlns="http://www.w3.org/2000/svg">
<path d="M38.08 48H23.488L22.784 43.328C22.1013 45.0347 21.0773 46.3573 19.712 47.296C18.3893 48.192 16.4053 48.64 13.76 48.64C7.14667 48.64 3.84 45.0773 3.84 37.952V18.688H0.256V17.536H15.744V39.488C15.744 42.048 15.9147 43.7333 16.256 44.544C16.64 45.3547 17.3653 45.76 18.432 45.76C19.5413 45.76 20.5227 45.0987 21.376 43.776C22.2293 42.4533 22.656 40.6187 22.656 38.272V18.688H19.712V17.536H34.56V46.848H38.08V48ZM74.59 30.784C74.59 26.3893 74.3767 23.4453 73.95 21.952C73.5233 20.416 72.6913 19.648 71.454 19.648C70.2167 19.648 69.1073 20.4587 68.126 22.08C67.1447 23.6587 66.654 25.792 66.654 28.48V40.192C66.654 42.0267 67.0167 43.584 67.742 44.864C68.4673 46.144 69.534 46.784 70.942 46.784C72.35 46.784 73.31 45.8453 73.822 43.968C74.334 42.0907 74.59 38.8053 74.59 34.112V30.784ZM66.526 17.536V22.592C68.19 18.7947 71.134 16.896 75.358 16.896C79.0273 16.896 81.8647 18.2187 83.87 20.864C85.918 23.5093 86.942 27.52 86.942 32.896C86.942 38.272 85.8327 42.24 83.614 44.8C81.438 47.36 78.1527 48.64 73.758 48.64C71.71 48.64 70.174 48.384 69.15 47.872C68.126 47.36 67.294 46.5707 66.654 45.504V62.08H74.91V63.232H51.23V62.08H54.75V18.688H51.358V17.536H66.526ZM118.615 18.048C116.738 18.048 115.394 19.072 114.583 21.12C113.772 23.168 113.367 26.56 113.367 31.296V34.624C113.367 38.848 113.836 41.8773 114.775 43.712C115.714 45.5467 117.442 46.464 119.959 46.464C122.476 46.464 124.482 45.6107 125.975 43.904C127.468 42.1973 128.428 40.256 128.855 38.08L130.007 38.208C129.196 41.8773 127.703 44.5227 125.527 46.144C123.308 47.808 120.258 48.64 116.375 48.64C111.426 48.64 107.628 47.3173 104.983 44.672C102.338 41.984 101.015 38.08 101.015 32.96C101.015 27.7973 102.508 23.8293 105.495 21.056C108.524 18.2827 112.727 16.896 118.103 16.896C121.9 16.896 124.802 17.6427 126.807 19.136C128.812 20.5867 129.815 22.4213 129.815 24.64C129.815 26.8587 129.324 28.48 128.343 29.504C127.404 30.528 126.082 31.04 124.375 31.04C122.711 31.04 121.367 30.592 120.343 29.696C119.319 28.8 118.807 27.4773 118.807 25.728C118.807 24.96 118.914 24.192 119.127 23.424H121.239C121.538 22.5707 121.687 21.8027 121.687 21.12C121.687 19.072 120.663 18.048 118.615 18.048ZM141.528 18.688V17.536H160.088V18.688H156.632L163.608 39.936L171.032 18.688H166.744V17.536H175.768V18.688H172.568L160.6 53.184C159.192 57.1947 157.613 59.9893 155.864 61.568C154.114 63.1893 151.981 64 149.464 64C146.946 64 144.962 63.424 143.512 62.272C142.061 61.12 141.336 59.648 141.336 57.856C141.336 56.064 141.805 54.6987 142.744 53.76C143.682 52.8213 144.92 52.352 146.456 52.352C149.997 52.352 151.768 53.824 151.768 56.768C151.768 57.408 151.64 58.176 151.384 59.072H149.144C148.802 60.0533 148.76 60.864 149.016 61.504C149.272 62.144 149.848 62.464 150.744 62.464C152.493 62.464 154.05 61.5893 155.416 59.84C156.781 58.1333 158.082 55.5093 159.32 51.968L160.728 48H155.096L144.152 18.688H141.528ZM204.045 18.048C202.168 18.048 200.824 19.072 200.013 21.12C199.202 23.168 198.797 26.56 198.797 31.296V34.624C198.797 38.848 199.266 41.8773 200.205 43.712C201.144 45.5467 202.872 46.464 205.389 46.464C207.906 46.464 209.912 45.6107 211.405 43.904C212.898 42.1973 213.858 40.256 214.285 38.08L215.437 38.208C214.626 41.8773 213.133 44.5227 210.957 46.144C208.738 47.808 205.688 48.64 201.805 48.64C196.856 48.64 193.058 47.3173 190.413 44.672C187.768 41.984 186.445 38.08 186.445 32.96C186.445 27.7973 187.938 23.8293 190.925 21.056C193.954 18.2827 198.157 16.896 203.533 16.896C207.33 16.896 210.232 17.6427 212.237 19.136C214.242 20.5867 215.245 22.4213 215.245 24.64C215.245 26.8587 214.754 28.48 213.773 29.504C212.834 30.528 211.512 31.04 209.805 31.04C208.141 31.04 206.797 30.592 205.773 29.696C204.749 28.8 204.237 27.4773 204.237 25.728C204.237 24.96 204.344 24.192 204.557 23.424H206.669C206.968 22.5707 207.117 21.8027 207.117 21.12C207.117 19.072 206.093 18.048 204.045 18.048ZM228.021 -3.8147e-06H243.701V46.848H247.285V48H228.277V46.848H231.797V1.152H228.021V-3.8147e-06ZM277.2 48.64C271.696 48.64 267.557 47.232 264.784 44.416C262.053 41.5573 260.688 37.6107 260.688 32.576C260.688 27.4987 262.224 23.616 265.296 20.928C268.41 18.24 272.357 16.896 277.136 16.896C286.821 16.896 291.472 21.76 291.088 31.488H273.04V33.984C273.04 38.1653 273.573 41.3227 274.64 43.456C275.706 45.5893 277.562 46.656 280.208 46.656C285.157 46.656 288.4 44.0107 289.936 38.72L291.088 38.912C290.277 41.984 288.805 44.3733 286.672 46.08C284.581 47.7867 281.424 48.64 277.2 48.64ZM273.104 30.208H279.696V27.072C279.696 23.616 279.482 21.2693 279.056 20.032C278.672 18.752 277.861 18.112 276.624 18.112C275.429 18.112 274.533 18.7947 273.936 20.16C273.381 21.4827 273.104 23.7867 273.104 27.072V30.208Z" fill="black"/>
</svg>
