<svg width="350" height="41" viewBox="0 0 350 41" fill="none" xmlns="http://www.w3.org/2000/svg">
<path d="M13.784 1.6V25.728C13.784 29.6533 14.68 32.7253 16.472 34.944C18.3067 37.1627 20.8453 38.272 24.088 38.272C27.4587 38.272 30.0613 37.2267 31.896 35.136C33.7733 33.0453 34.7333 30.144 34.776 26.432V1.6H39V26.048C39 30.6133 37.592 34.2187 34.776 36.864C32.0027 39.5093 28.056 40.832 22.936 40.832C16.7493 40.832 12.1413 39.5307 9.112 36.928C6.08267 34.2827 4.568 30.6773 4.568 26.112V1.6H13.784ZM4.696 1.6V4.928H4.568C4.52533 4.11733 4.22667 3.456 3.672 2.944C3.11733 2.432 2.43467 2.176 1.624 2.176C1.624 2.176 1.47467 2.176 1.176 2.176C0.877333 2.176 0.728 2.176 0.728 2.176V1.6H4.696ZM17.56 1.6V2.176C17.56 2.176 17.4107 2.176 17.112 2.176C16.8133 2.176 16.664 2.176 16.664 2.176C15.8533 2.176 15.1707 2.432 14.616 2.944C14.0613 3.456 13.784 4.11733 13.784 4.928H13.656V1.6H17.56ZM34.904 1.6V4.928H34.776C34.7333 4.11733 34.4347 3.456 33.88 2.944C33.3253 2.432 32.664 2.176 31.896 2.176C31.896 2.176 31.7467 2.176 31.448 2.176C31.1493 2.176 31 2.176 31 2.176V1.6H34.904ZM42.776 1.6V2.176C42.776 2.176 42.6267 2.176 42.328 2.176C42.072 2.176 41.944 2.176 41.944 2.176C41.1333 2.176 40.4293 2.432 39.832 2.944C39.2773 3.456 39 4.11733 39 4.928H38.872V1.6H42.776ZM70.941 1.6H77.085C80.541 1.6 83.3357 2.06933 85.469 3.008C87.6023 3.94666 89.2023 5.22666 90.269 6.848C91.3357 8.42666 91.9117 10.2187 91.997 12.224C92.0823 14.7413 91.5703 16.9387 90.461 18.816C89.3943 20.6933 87.9437 22.1227 86.109 23.104C84.2743 24.0853 82.269 24.5333 80.093 24.448C77.917 24.32 75.7623 23.552 73.629 22.144V21.568C73.629 21.568 73.8423 21.568 74.269 21.568C74.7383 21.568 75.3143 21.504 75.997 21.376C76.6797 21.2053 77.3837 20.9067 78.109 20.48C78.877 20.0533 79.6023 19.4133 80.285 18.56C80.9677 17.7067 81.501 16.5547 81.885 15.104C82.013 14.592 82.0983 14.0373 82.141 13.44C82.2263 12.8 82.2477 12.2453 82.205 11.776C82.1623 9.42933 81.4583 7.57333 80.093 6.208C78.7703 4.8 76.9143 4.096 74.525 4.096H71.517C71.517 4.096 71.4743 3.904 71.389 3.52C71.3037 3.09333 71.197 2.66666 71.069 2.24C70.9837 1.81333 70.941 1.6 70.941 1.6ZM71.645 1.6V40H62.429V1.6H71.645ZM62.557 35.968L62.813 40H58.205V39.36C58.2477 39.36 58.3757 39.36 58.589 39.36C58.8023 39.36 58.9303 39.36 58.973 39.36C59.9117 39.36 60.701 39.04 61.341 38.4C62.0237 37.7173 62.3863 36.9067 62.429 35.968H62.557ZM62.557 5.568H62.429C62.3863 4.58666 62.0237 3.79733 61.341 3.2C60.701 2.56 59.9117 2.24 58.973 2.24C58.8877 2.24 58.7383 2.24 58.525 2.24C58.3543 2.24 58.2263 2.24 58.141 2.24V1.6H62.813L62.557 5.568ZM71.517 35.968H71.645C71.6877 36.9067 72.029 37.7173 72.669 38.4C73.309 39.04 74.1197 39.36 75.101 39.36C75.1863 39.36 75.3143 39.36 75.485 39.36C75.6983 39.36 75.8263 39.36 75.869 39.36V40H71.197L71.517 35.968ZM146.756 23.936L147.46 33.6C146.649 34.9653 145.519 36.2027 144.068 37.312C142.617 38.3787 140.847 39.232 138.756 39.872C136.665 40.512 134.233 40.832 131.46 40.832C126.681 40.7893 122.564 39.9787 119.108 38.4C115.652 36.8213 112.985 34.56 111.108 31.616C109.273 28.6293 108.356 25.0027 108.356 20.736C108.356 16.5547 109.273 12.992 111.108 10.048C112.943 7.06133 115.588 4.77866 119.044 3.2C122.5 1.57866 126.639 0.767998 131.46 0.767998C134.361 0.767998 137.049 1.04533 139.524 1.6C142.041 2.15467 144.132 2.85867 145.796 3.712L145.86 13.888H145.348C144.281 9.96267 142.596 7.21067 140.292 5.632C137.988 4.05333 135.257 3.264 132.1 3.264C128.985 3.264 126.383 3.98933 124.292 5.44C122.244 6.89066 120.687 8.91733 119.62 11.52C118.596 14.1227 118.084 17.1733 118.084 20.672C118.084 24.2133 118.596 27.2853 119.62 29.888C120.687 32.4907 122.223 34.5173 124.228 35.968C126.233 37.4187 128.644 38.1867 131.46 38.272C134.489 38.272 136.985 37.8027 138.948 36.864C140.953 35.9253 142.532 34.4107 143.684 32.32C144.879 30.2293 145.732 27.4347 146.244 23.936H146.756ZM174.814 1.664L186.846 22.464L178.334 23.424L164.318 1.664H174.814ZM187.23 22.592V40H178.014V22.72L187.23 22.592ZM196.318 1.664H201.054L186.59 23.872L183.582 23.296L196.318 1.664ZM194.014 5.568C194.483 4.75733 194.483 4.01066 194.014 3.328C193.545 2.60266 192.905 2.24 192.094 2.24C192.094 2.24 191.966 2.24 191.71 2.24C191.454 2.24 191.326 2.24 191.326 2.24V1.6H205.086V2.24H204.254C203.102 2.24 202.014 2.56 200.99 3.2C200.009 3.79733 199.219 4.52266 198.622 5.376L194.014 5.568ZM177.054 5.568L166.686 5.376C166.089 4.48 165.299 3.73333 164.318 3.136C163.337 2.53866 162.249 2.24 161.054 2.24H160.286V1.6H179.742V2.24C179.742 2.24 179.614 2.24 179.358 2.24C179.145 2.24 179.038 2.24 179.038 2.24C178.185 2.24 177.523 2.60266 177.054 3.328C176.627 4.05333 176.627 4.8 177.054 5.568ZM178.206 35.968V40H173.662V39.36C173.705 39.36 173.833 39.36 174.046 39.36C174.302 39.36 174.43 39.36 174.43 39.36C175.411 39.36 176.243 39.04 176.926 38.4C177.609 37.7173 177.971 36.9067 178.014 35.968H178.206ZM187.102 35.968H187.23C187.273 36.9067 187.635 37.7173 188.318 38.4C189.043 39.04 189.875 39.36 190.814 39.36C190.814 39.36 190.942 39.36 191.198 39.36C191.454 39.36 191.582 39.36 191.582 39.36V40H187.102V35.968ZM253.186 23.936L253.89 33.6C253.079 34.9653 251.949 36.2027 250.498 37.312C249.047 38.3787 247.277 39.232 245.186 39.872C243.095 40.512 240.663 40.832 237.89 40.832C233.111 40.7893 228.994 39.9787 225.538 38.4C222.082 36.8213 219.415 34.56 217.538 31.616C215.703 28.6293 214.786 25.0027 214.786 20.736C214.786 16.5547 215.703 12.992 217.538 10.048C219.373 7.06133 222.018 4.77866 225.474 3.2C228.93 1.57866 233.069 0.767998 237.89 0.767998C240.791 0.767998 243.479 1.04533 245.954 1.6C248.471 2.15467 250.562 2.85867 252.226 3.712L252.29 13.888H251.778C250.711 9.96267 249.026 7.21067 246.722 5.632C244.418 4.05333 241.687 3.264 238.53 3.264C235.415 3.264 232.813 3.98933 230.722 5.44C228.674 6.89066 227.117 8.91733 226.05 11.52C225.026 14.1227 224.514 17.1733 224.514 20.672C224.514 24.2133 225.026 27.2853 226.05 29.888C227.117 32.4907 228.653 34.5173 230.658 35.968C232.663 37.4187 235.074 38.1867 237.89 38.272C240.919 38.272 243.415 37.8027 245.378 36.864C247.383 35.9253 248.962 34.4107 250.114 32.32C251.309 30.2293 252.162 27.4347 252.674 23.936H253.186ZM283.818 1.6V40H274.602V1.6H283.818ZM298.73 37.44L300.266 40H283.69V37.44H298.73ZM302.954 28.224L300.458 40H289.386L291.37 37.44C293.204 37.44 294.826 37.0773 296.234 36.352C297.684 35.584 298.922 34.5173 299.946 33.152C300.97 31.744 301.759 30.1013 302.314 28.224H302.954ZM274.73 35.968L275.05 40H270.314V39.36C270.314 39.36 270.442 39.36 270.698 39.36C270.954 39.36 271.103 39.36 271.146 39.36C272.084 39.36 272.874 39.04 273.514 38.4C274.196 37.7173 274.559 36.9067 274.602 35.968H274.73ZM283.69 5.632V1.6H288.106V2.24C288.063 2.24 287.914 2.24 287.658 2.24C287.444 2.24 287.338 2.24 287.338 2.24C286.399 2.24 285.588 2.56 284.906 3.2C284.223 3.84 283.86 4.65067 283.818 5.632H283.69ZM274.73 5.632H274.602C274.559 4.65067 274.196 3.84 273.514 3.2C272.831 2.56 272.02 2.24 271.082 2.24C271.039 2.24 270.89 2.24 270.634 2.24C270.42 2.24 270.314 2.24 270.314 2.24V1.6H274.73V5.632ZM330.158 1.6V40H320.942V1.6H330.158ZM345.134 37.44L346.606 40H330.03V37.44H345.134ZM342.958 19.712V22.272H330.03V19.712H342.958ZM345.838 1.6V4.16H330.03V1.6H345.838ZM349.23 28.224L346.798 40H335.726L337.71 37.44C339.544 37.44 341.166 37.0773 342.574 36.352C344.024 35.584 345.262 34.5173 346.286 33.152C347.31 31.744 348.099 30.1013 348.654 28.224H349.23ZM342.958 22.144V27.776H342.318V27.264C342.318 25.856 341.87 24.6827 340.974 23.744C340.12 22.8053 338.947 22.3147 337.454 22.272V22.144H342.958ZM342.958 14.208V19.84H337.454V19.712C338.947 19.6693 340.12 19.1787 340.974 18.24C341.87 17.2587 342.318 16.064 342.318 14.656V14.208H342.958ZM345.838 4.032V10.816H345.198V10.24C345.198 8.36267 344.686 6.89067 343.662 5.824C342.68 4.75733 341.251 4.20267 339.374 4.16V4.032H345.838ZM345.838 0.639999V2.176L339.118 1.6C340.355 1.6 341.656 1.49333 343.022 1.28C344.387 1.024 345.326 0.810666 345.838 0.639999ZM321.07 35.968L321.39 40H316.654V39.36C316.654 39.36 316.782 39.36 317.038 39.36C317.294 39.36 317.443 39.36 317.486 39.36C318.424 39.36 319.214 39.04 319.854 38.4C320.536 37.7173 320.899 36.9067 320.942 35.968H321.07ZM321.07 5.632H320.942C320.899 4.65067 320.536 3.84 319.854 3.2C319.214 2.56 318.424 2.24 317.486 2.24C317.443 2.24 317.294 2.24 317.038 2.24C316.782 2.24 316.654 2.24 316.654 2.24V1.6H321.39L321.07 5.632Z" fill="black"/>
</svg>
