<svg width="205" height="60" viewBox="0 0 205 60" fill="none" xmlns="http://www.w3.org/2000/svg">
<path d="M86.472 24.448C83.9547 24.448 81.9173 23.6373 80.36 22.016C78.824 20.3947 78.056 18.336 78.056 15.84C78.056 13.1307 78.4613 11.0293 79.272 9.536C80.0613 8.04267 81.6933 6.688 84.168 5.472C84.232 5.42933 84.3493 5.36533 84.52 5.28C84.712 5.19467 84.904 5.10933 85.096 5.024C85.3093 4.93867 85.512 4.85333 85.704 4.768L87.048 4.096C87.368 3.94667 87.7093 3.75467 88.072 3.52C88.6053 3.2 89 2.86933 89.256 2.528C89.512 2.18667 89.7893 1.67467 90.088 0.991999L93.48 2.944C93.2027 4.24533 92.5733 5.25867 91.592 5.984C90.5893 6.70933 89.1387 7.43467 87.24 8.16C85.9173 8.672 84.936 9.19467 84.296 9.728C83.656 10.2613 83.1973 10.912 82.92 11.68C84.0933 10.464 85.6933 9.856 87.72 9.856C89.512 9.856 91.0907 10.5067 92.456 11.808C93.8427 13.088 94.536 14.7947 94.536 16.928C94.536 19.1253 93.7893 20.928 92.296 22.336C90.824 23.744 88.8827 24.448 86.472 24.448ZM86.408 13.152C85.3413 13.152 84.4027 13.4827 83.592 14.144C82.7813 14.8267 82.376 15.712 82.376 16.8C82.376 17.9307 82.76 18.8587 83.528 19.584C84.3173 20.3093 85.288 20.672 86.44 20.672C87.6133 20.672 88.5627 20.32 89.288 19.616C90.0347 18.912 90.408 18.016 90.408 16.928C90.408 15.84 90.0347 14.944 89.288 14.24C88.5413 13.5147 87.5813 13.152 86.408 13.152ZM112.916 22.016C111.295 23.6373 109.29 24.448 106.9 24.448C104.511 24.448 102.506 23.6373 100.884 22.016C99.2629 20.3947 98.4522 18.3893 98.4522 16C98.4522 13.632 99.2629 11.6373 100.884 10.016C102.527 8.37333 104.532 7.552 106.9 7.552C109.268 7.552 111.274 8.37333 112.916 10.016C114.559 11.6587 115.38 13.6533 115.38 16C115.38 18.368 114.559 20.3733 112.916 22.016ZM103.796 19.168C104.628 20 105.663 20.416 106.9 20.416C108.138 20.416 109.172 20 110.004 19.168C110.836 18.336 111.252 17.28 111.252 16C111.252 14.72 110.836 13.664 110.004 12.832C109.172 12 108.138 11.584 106.9 11.584C105.663 11.584 104.628 12 103.796 12.832C102.986 13.6853 102.58 14.7413 102.58 16C102.58 17.2587 102.986 18.3147 103.796 19.168ZM121.174 8H133.846V24H129.718V11.968H125.302V17.312C125.302 22.24 123.051 24.4693 118.55 24V20.128C119.403 20.3413 120.054 20.192 120.502 19.68C120.95 19.168 121.174 18.304 121.174 17.088V8ZM143.955 13.12H147.059C148.872 13.12 150.333 13.6213 151.443 14.624C152.552 15.6053 153.107 16.9173 153.107 18.56C153.107 20.2027 152.552 21.5253 151.443 22.528C150.333 23.5093 148.872 24 147.059 24H139.827V8H143.955V13.12ZM143.955 20.352H147.091C147.667 20.352 148.136 20.192 148.499 19.872C148.883 19.5307 149.075 19.0933 149.075 18.56C149.075 18.0267 148.883 17.5893 148.499 17.248C148.136 16.9067 147.667 16.736 147.091 16.736H143.955V20.352ZM176.694 20.128V8H180.822V24H157.942V8H162.07V20.128H167.318V8H171.446V20.128H176.694ZM202.39 17.696H190.326C190.859 19.7013 192.363 20.704 194.838 20.704C196.417 20.704 197.611 20.1707 198.422 19.104L201.75 21.024C200.171 23.3067 197.846 24.448 194.774 24.448C192.129 24.448 190.006 23.648 188.406 22.048C186.806 20.448 186.006 18.432 186.006 16C186.006 13.6107 186.795 11.6053 188.374 9.984C189.931 8.36267 191.958 7.552 194.454 7.552C196.822 7.552 198.753 8.36267 200.246 9.984C201.782 11.6053 202.55 13.6107 202.55 16C202.55 16.448 202.497 17.0133 202.39 17.696ZM190.262 14.496H198.422C198.187 13.4507 197.707 12.6507 196.982 12.096C196.278 11.5413 195.435 11.264 194.454 11.264C193.345 11.264 192.427 11.552 191.702 12.128C190.977 12.6827 190.497 13.472 190.262 14.496Z" fill="black"/>
<line y1="41" x2="204" y2="41" stroke="black" stroke-width="2"/>
<line x1="204.216" y1="41.9765" x2="127.216" y2="58.9765" stroke="black" stroke-width="2"/>
</svg>
