<svg width="317" height="28" viewBox="0 0 317 28" fill="none" xmlns="http://www.w3.org/2000/svg">
<path d="M10.3187 3.416C14.3294 3.416 17.4974 3.90667 19.8227 4.888C22.1481 5.848 23.7694 7.192 24.6867 8.92C25.6254 10.6267 26.0947 12.728 26.0947 15.224C26.0947 17.592 25.5614 19.6613 24.4947 21.432C23.4281 23.2027 21.8281 24.5787 19.6947 25.56C17.5614 26.52 14.9374 27 11.8227 27C9.92407 27 7.9934 27 6.03074 27C4.06807 27 2.08407 26.9893 0.0787367 26.968C0.249403 22.7653 0.334737 18.8507 0.334737 15.224C0.334737 11.5547 0.249403 7.72533 0.0787367 3.736C2.6174 3.52267 6.03074 3.416 10.3187 3.416ZM12.7187 20.632C14.7027 20.632 16.0254 20.152 16.6867 19.192C17.3481 18.232 17.6787 16.9093 17.6787 15.224C17.6787 13.6027 17.3267 12.2907 16.6227 11.288C15.9401 10.2853 14.6387 9.784 12.7187 9.784C10.6494 9.784 9.10274 9.848 8.07874 9.976V20.632H12.7187ZM46.8492 19H36.4172C36.5879 19.9387 37.0039 20.7067 37.6652 21.304C38.3479 21.88 39.3079 22.168 40.5452 22.168C41.4412 22.168 42.2839 21.9973 43.0732 21.656C43.8626 21.2933 44.4919 20.792 44.9612 20.152C46.3906 20.856 48.2892 21.6133 50.6572 22.424C49.9959 23.9173 48.7906 25.112 47.0412 26.008C45.3132 26.8827 43.0519 27.32 40.2572 27.32C36.6306 27.32 33.9426 26.488 32.1932 24.824C30.4652 23.1387 29.6012 20.9307 29.6012 18.2C29.6012 15.5333 30.4652 13.368 32.1932 11.704C33.9212 10.04 36.6092 9.208 40.2572 9.208C42.4332 9.208 44.3212 9.57067 45.9212 10.296C47.5212 11.0213 48.7479 12.0347 49.6012 13.336C50.4546 14.616 50.8812 16.088 50.8812 17.752C50.8812 18.3067 50.8599 18.7227 50.8172 19H46.8492ZM40.7052 14.04C39.6386 14.04 38.7639 14.2427 38.0812 14.648C37.3986 15.0533 36.9186 15.608 36.6412 16.312H44.1932C43.9372 15.6293 43.5212 15.0853 42.9452 14.68C42.3692 14.2533 41.6226 14.04 40.7052 14.04ZM61.9087 14.2C61.8874 15.48 61.8767 17.4427 61.8767 20.088C61.8767 23.2667 61.8981 25.5707 61.9407 27H54.3887L54.4207 23.384C54.4634 19.416 54.4847 16.3547 54.4847 14.2C54.4847 12.152 54.4634 9.25067 54.4207 5.496L54.3887 2.04H61.9407C61.8981 5.06933 61.8767 7.544 61.8767 9.464C61.8767 11.5973 61.8874 13.176 61.9087 14.2ZM86.3057 21.688C86.3057 22.4133 86.3911 22.9253 86.5617 23.224C86.7324 23.5227 87.0737 23.736 87.5857 23.864L87.4577 26.872C86.7751 26.9787 86.1777 27.0533 85.6657 27.096C85.1751 27.1387 84.5137 27.16 83.6817 27.16C81.8471 27.16 80.6311 26.7547 80.0337 25.944C79.4364 25.112 79.1377 24.056 79.1377 22.776V21.976C78.5191 23.7253 77.6124 25.0267 76.4177 25.88C75.2444 26.7333 73.7404 27.16 71.9057 27.16C69.7724 27.16 68.1617 26.7333 67.0737 25.88C66.0071 25.0267 65.4737 23.7573 65.4737 22.072C65.4737 20.6853 65.9324 19.5973 66.8497 18.808C67.7671 18.0187 69.1857 17.4747 71.1057 17.176C69.4844 16.024 67.8631 15.0213 66.2417 14.168C67.5217 12.5467 68.9831 11.32 70.6257 10.488C72.2684 9.63467 74.2631 9.208 76.6097 9.208C79.8951 9.208 82.3271 9.92267 83.9057 11.352C85.5057 12.76 86.3057 14.936 86.3057 17.88V21.688ZM77.2817 14.84C76.1937 14.84 75.2337 15.0213 74.4017 15.384C73.5697 15.7467 72.8231 16.2907 72.1617 17.016C73.4417 16.8667 75.0417 16.792 76.9617 16.792C77.7511 16.792 78.3057 16.696 78.6257 16.504C78.9457 16.312 79.1057 16.0667 79.1057 15.768C79.1057 15.512 78.9457 15.2987 78.6257 15.128C78.3057 14.936 77.8577 14.84 77.2817 14.84ZM73.9217 21.944C75.1164 21.944 76.1937 21.72 77.1537 21.272C78.1137 20.8027 78.7751 20.1947 79.1377 19.448V18.616C78.6257 18.872 78.0604 19.0747 77.4417 19.224C76.8231 19.352 76.0764 19.48 75.2017 19.608L74.0497 19.8C72.8551 20.0347 72.2577 20.44 72.2577 21.016C72.2577 21.6347 72.8124 21.944 73.9217 21.944ZM111.663 13.752H125.327V27H119.695L119.023 21.336C118.383 23.3627 117.241 24.8667 115.599 25.848C113.956 26.8293 111.951 27.32 109.583 27.32C107.428 27.32 105.508 26.84 103.823 25.88C102.159 24.92 100.847 23.544 99.8867 21.752C98.9481 19.96 98.4787 17.8693 98.4787 15.48C98.4787 11.6613 99.6201 8.64267 101.903 6.424C104.185 4.20533 107.737 3.096 112.559 3.096C115.311 3.096 117.732 3.544 119.823 4.44C121.935 5.336 123.727 6.72267 125.199 8.6C124.239 9.09067 122.361 10.072 119.567 11.544L118.767 11.992C117.935 11.16 116.964 10.5413 115.855 10.136C114.745 9.70933 113.572 9.496 112.335 9.496C110.287 9.496 108.761 10.04 107.759 11.128C106.756 12.1947 106.255 13.5173 106.255 15.096C106.255 16.8027 106.788 18.1787 107.855 19.224C108.943 20.2693 110.596 20.792 112.815 20.792C113.775 20.792 114.703 20.6533 115.599 20.376C116.516 20.0987 117.284 19.6187 117.903 18.936H111.663V13.752ZM139.469 27.32C135.821 27.32 133.133 26.488 131.405 24.824C129.698 23.1387 128.845 20.9307 128.845 18.2C128.845 15.5333 129.698 13.368 131.405 11.704C133.133 10.04 135.821 9.208 139.469 9.208C141.922 9.208 143.97 9.61333 145.613 10.424C147.277 11.2133 148.504 12.2907 149.293 13.656C150.082 15 150.477 16.5147 150.477 18.2C150.477 20.952 149.56 23.16 147.725 24.824C145.912 26.488 143.16 27.32 139.469 27.32ZM139.597 21.88C140.984 21.88 142.018 21.5493 142.701 20.888C143.384 20.2267 143.725 19.3413 143.725 18.232C143.725 17.1867 143.384 16.3333 142.701 15.672C142.018 14.9893 140.984 14.648 139.597 14.648C138.21 14.648 137.197 14.9787 136.557 15.64C135.917 16.3013 135.597 17.1653 135.597 18.232C135.597 19.3413 135.917 20.2267 136.557 20.888C137.197 21.5493 138.21 21.88 139.597 21.88ZM168.503 15.256C166.541 15.128 164.749 15.032 163.127 14.968L163.095 18.36C163.095 19.512 163.341 20.4187 163.831 21.08C164.343 21.72 165.239 22.04 166.519 22.04C167.01 22.04 167.479 21.9973 167.927 21.912C167.842 22.7013 167.799 23.5013 167.799 24.312C167.799 24.696 167.821 25.5707 167.863 26.936C166.925 27.1067 166.135 27.2133 165.495 27.256C164.855 27.2987 164.023 27.32 162.999 27.32C160.503 27.32 158.733 26.7227 157.687 25.528C156.663 24.312 156.151 22.6267 156.151 20.472L156.183 15.064C155.181 15.1067 154.135 15.1707 153.047 15.256V9.592C154.157 9.592 155.095 9.24 155.863 8.536C156.631 7.832 157.09 6.98933 157.239 6.008H165.943C164.855 7.50133 163.65 8.696 162.327 9.592H168.503V15.256ZM184.174 27C184.302 23.864 184.366 20.9733 184.366 18.328C184.366 17.3893 184.131 16.6427 183.662 16.088C183.214 15.5333 182.638 15.256 181.934 15.256C181.187 15.256 180.547 15.6187 180.014 16.344C179.502 17.0693 179.246 18.0613 179.246 19.32L179.214 19.256C179.214 22.7333 179.256 25.3147 179.342 27H171.694C171.864 23.928 171.95 19.768 171.95 14.52C171.95 9.272 171.864 5.112 171.694 2.04H179.31L179.342 11.896L179.31 13.592C179.822 12.0987 180.579 11 181.582 10.296C182.606 9.57067 183.758 9.208 185.038 9.208C186.318 9.208 187.427 9.496 188.366 10.072C189.304 10.6267 190.008 11.384 190.478 12.344C190.968 13.304 191.214 14.3813 191.214 15.576V20.184C191.214 23.0213 191.267 25.2933 191.374 27H184.174ZM199.512 7.64C198.168 7.64 197.165 7.30933 196.504 6.648C195.864 5.98667 195.544 5.12267 195.544 4.056C195.544 3.01067 195.864 2.14667 196.504 1.464C197.165 0.781332 198.168 0.439999 199.512 0.439999C200.792 0.439999 201.773 0.791999 202.456 1.496C203.138 2.17867 203.48 3.032 203.48 4.056C203.48 5.12267 203.149 5.98667 202.488 6.648C201.826 7.30933 200.834 7.64 199.512 7.64ZM195.8 27C195.949 23.5653 196.024 20.728 196.024 18.488C196.024 15.8213 195.938 12.8347 195.768 9.528H203.448C203.277 12.7067 203.192 15.6933 203.192 18.488C203.192 20.8347 203.266 23.672 203.416 27H195.8ZM214.125 18.264C214.167 19.352 214.509 20.2267 215.149 20.888C215.81 21.5493 216.781 21.88 218.061 21.88C218.765 21.88 219.394 21.752 219.949 21.496C220.503 21.2187 221.015 20.8133 221.485 20.28C223.298 20.984 225.421 21.592 227.853 22.104C227.149 23.7467 225.954 25.0267 224.269 25.944C222.605 26.8613 220.439 27.32 217.773 27.32C214.21 27.32 211.575 26.488 209.869 24.824C208.162 23.16 207.309 20.9733 207.309 18.264C207.309 15.5547 208.162 13.368 209.869 11.704C211.575 10.04 214.21 9.208 217.773 9.208C220.439 9.208 222.605 9.66667 224.269 10.584C225.954 11.5013 227.149 12.7813 227.853 14.424C225.954 14.8293 223.831 15.4373 221.485 16.248C221.015 15.7147 220.503 15.32 219.949 15.064C219.394 14.7867 218.765 14.648 218.061 14.648C216.781 14.648 215.81 14.9787 215.149 15.64C214.509 16.3013 214.167 17.176 214.125 18.264ZM253.46 27.32C248.575 27.32 244.98 26.264 242.676 24.152C240.372 22.0187 239.22 19.032 239.22 15.192C239.22 11.3947 240.361 8.42933 242.644 6.296C244.948 4.16267 248.553 3.096 253.46 3.096C258.388 3.096 261.993 4.16267 264.276 6.296C266.58 8.42933 267.732 11.3947 267.732 15.192C267.732 19.0533 266.591 22.04 264.308 24.152C262.025 26.264 258.409 27.32 253.46 27.32ZM253.46 20.792C255.828 20.792 257.535 20.344 258.58 19.448C259.625 18.5307 260.148 17.112 260.148 15.192C260.148 13.3147 259.625 11.9173 258.58 11C257.535 10.0827 255.828 9.624 253.46 9.624C251.113 9.624 249.417 10.0827 248.372 11C247.327 11.9173 246.804 13.3147 246.804 15.192C246.804 17.0907 247.327 18.4987 248.372 19.416C249.417 20.3333 251.113 20.792 253.46 20.792ZM284.043 27C284.171 23.864 284.235 20.9733 284.235 18.328C284.235 17.3893 284 16.6427 283.531 16.088C283.083 15.5333 282.507 15.256 281.803 15.256C281.099 15.256 280.501 15.576 280.011 16.216C279.52 16.8347 279.232 17.688 279.147 18.776C279.104 20.3973 279.083 21.5493 279.083 22.232C279.083 23.6827 279.125 25.272 279.211 27H271.563C271.733 23.928 271.819 21.0267 271.819 18.296C271.819 15.5653 271.733 12.6427 271.563 9.528C272.971 9.592 274.048 9.624 274.795 9.624C275.584 9.624 276.661 9.592 278.027 9.528L278.955 14.232C279.445 12.5253 280.213 11.2667 281.259 10.456C282.304 9.624 283.52 9.208 284.907 9.208C286.187 9.208 287.296 9.496 288.235 10.072C289.173 10.6267 289.877 11.384 290.347 12.344C290.837 13.304 291.083 14.3813 291.083 15.576V20.184C291.083 23.0213 291.136 25.2933 291.243 27H284.043ZM312.021 19H301.589C301.759 19.9387 302.175 20.7067 302.837 21.304C303.519 21.88 304.479 22.168 305.717 22.168C306.613 22.168 307.455 21.9973 308.245 21.656C309.034 21.2933 309.663 20.792 310.133 20.152C311.562 20.856 313.461 21.6133 315.829 22.424C315.167 23.9173 313.962 25.112 312.213 26.008C310.485 26.8827 308.223 27.32 305.429 27.32C301.802 27.32 299.114 26.488 297.365 24.824C295.637 23.1387 294.773 20.9307 294.773 18.2C294.773 15.5333 295.637 13.368 297.365 11.704C299.093 10.04 301.781 9.208 305.429 9.208C307.605 9.208 309.493 9.57067 311.093 10.296C312.693 11.0213 313.919 12.0347 314.773 13.336C315.626 14.616 316.053 16.088 316.053 17.752C316.053 18.3067 316.031 18.7227 315.989 19H312.021ZM305.877 14.04C304.81 14.04 303.935 14.2427 303.253 14.648C302.57 15.0533 302.09 15.608 301.812 16.312H309.365C309.109 15.6293 308.693 15.0853 308.117 14.68C307.541 14.2533 306.794 14.04 305.877 14.04Z" fill="black"/>
</svg>
