<svg width="79" height="19" viewBox="0 0 79 19" fill="none" xmlns="http://www.w3.org/2000/svg">
<path d="M0.235153 0.9375H5.88359C7.16484 0.9375 8.24687 1.13281 9.12968 1.52344C10.0203 1.91406 10.6961 2.49219 11.157 3.25781C11.6258 4.01563 11.8602 4.94922 11.8602 6.05859C11.8602 6.83984 11.7 7.55469 11.3797 8.20312C11.0672 8.84375 10.6141 9.39062 10.0203 9.84375C9.43437 10.2891 8.73125 10.6211 7.91093 10.8398L7.27812 11.0859H1.96953L1.94609 9.24609H5.9539C6.7664 9.24609 7.44218 9.10547 7.98125 8.82422C8.52031 8.53516 8.92656 8.14844 9.2 7.66406C9.47343 7.17969 9.61015 6.64453 9.61015 6.05859C9.61015 5.40234 9.48125 4.82812 9.22343 4.33594C8.96562 3.84375 8.55937 3.46484 8.00468 3.19922C7.45781 2.92578 6.75078 2.78906 5.88359 2.78906H2.49687V18H0.235153V0.9375ZM10.2078 18L6.05937 10.2656L8.41484 10.2539L12.6219 17.8594V18H10.2078ZM15.0819 11.8008V11.5312C15.0819 10.6172 15.2147 9.76953 15.4803 8.98828C15.7459 8.19922 16.1287 7.51562 16.6287 6.9375C17.1287 6.35156 17.7342 5.89844 18.4452 5.57812C19.1561 5.25 19.953 5.08594 20.8358 5.08594C21.7264 5.08594 22.5272 5.25 23.2381 5.57812C23.9569 5.89844 24.5662 6.35156 25.0662 6.9375C25.5741 7.51562 25.9608 8.19922 26.2264 8.98828C26.492 9.76953 26.6248 10.6172 26.6248 11.5312V11.8008C26.6248 12.7148 26.492 13.5625 26.2264 14.3438C25.9608 15.125 25.5741 15.8086 25.0662 16.3945C24.5662 16.9727 23.9608 17.4258 23.2498 17.7539C22.5467 18.0742 21.7498 18.2344 20.8592 18.2344C19.9686 18.2344 19.1678 18.0742 18.4569 17.7539C17.7459 17.4258 17.1366 16.9727 16.6287 16.3945C16.1287 15.8086 15.7459 15.125 15.4803 14.3438C15.2147 13.5625 15.0819 12.7148 15.0819 11.8008ZM17.2498 11.5312V11.8008C17.2498 12.4336 17.3241 13.0312 17.4725 13.5938C17.6209 14.1484 17.8436 14.6406 18.1405 15.0703C18.4452 15.5 18.8241 15.8398 19.2772 16.0898C19.7303 16.332 20.2577 16.4531 20.8592 16.4531C21.453 16.4531 21.9725 16.332 22.4178 16.0898C22.8709 15.8398 23.2459 15.5 23.5428 15.0703C23.8397 14.6406 24.0623 14.1484 24.2108 13.5938C24.367 13.0312 24.4452 12.4336 24.4452 11.8008V11.5312C24.4452 10.9062 24.367 10.3164 24.2108 9.76172C24.0623 9.19922 23.8358 8.70312 23.5311 8.27344C23.2342 7.83594 22.8592 7.49219 22.4061 7.24219C21.9608 6.99219 21.4373 6.86719 20.8358 6.86719C20.242 6.86719 19.7186 6.99219 19.2655 7.24219C18.8202 7.49219 18.4452 7.83594 18.1405 8.27344C17.8436 8.70312 17.6209 9.19922 17.4725 9.76172C17.3241 10.3164 17.2498 10.9062 17.2498 11.5312ZM30.2919 0H32.4716V15.5391L32.2841 18H30.2919V0ZM41.038 11.5547V11.8008C41.038 12.7227 40.9286 13.5781 40.7098 14.3672C40.4911 15.1484 40.1708 15.8281 39.7489 16.4062C39.327 16.9844 38.8114 17.4336 38.202 17.7539C37.5927 18.0742 36.8934 18.2344 36.1044 18.2344C35.2997 18.2344 34.5927 18.0977 33.9833 17.8242C33.3817 17.543 32.8739 17.1406 32.4598 16.6172C32.0458 16.0938 31.7137 15.4609 31.4637 14.7188C31.2216 13.9766 31.0536 13.1406 30.9598 12.2109V11.1328C31.0536 10.1953 31.2216 9.35547 31.4637 8.61328C31.7137 7.87109 32.0458 7.23828 32.4598 6.71484C32.8739 6.18359 33.3817 5.78125 33.9833 5.50781C34.5848 5.22656 35.2841 5.08594 36.0809 5.08594C36.8778 5.08594 37.5848 5.24219 38.202 5.55469C38.8192 5.85938 39.3348 6.29688 39.7489 6.86719C40.1708 7.4375 40.4911 8.12109 40.7098 8.91797C40.9286 9.70703 41.038 10.5859 41.038 11.5547ZM38.8583 11.8008V11.5547C38.8583 10.9219 38.7997 10.3281 38.6825 9.77344C38.5653 9.21094 38.3778 8.71875 38.12 8.29688C37.8622 7.86719 37.5223 7.53125 37.1005 7.28906C36.6786 7.03906 36.1591 6.91406 35.5419 6.91406C34.995 6.91406 34.5184 7.00781 34.1122 7.19531C33.7137 7.38281 33.3739 7.63672 33.0927 7.95703C32.8114 8.26953 32.5809 8.62891 32.4012 9.03516C32.2294 9.43359 32.1005 9.84766 32.0145 10.2773V13.1016C32.1395 13.6484 32.3427 14.1758 32.6239 14.6836C32.913 15.1836 33.2958 15.5938 33.7723 15.9141C34.2567 16.2344 34.8544 16.3945 35.5653 16.3945C36.1512 16.3945 36.6512 16.2773 37.0653 16.043C37.4872 15.8008 37.827 15.4688 38.0848 15.0469C38.3505 14.625 38.5458 14.1367 38.6708 13.582C38.7958 13.0273 38.8583 12.4336 38.8583 11.8008ZM44.1659 11.8008V11.5312C44.1659 10.6172 44.2987 9.76953 44.5644 8.98828C44.83 8.19922 45.2128 7.51562 45.7128 6.9375C46.2128 6.35156 46.8183 5.89844 47.5292 5.57812C48.2402 5.25 49.037 5.08594 49.9198 5.08594C50.8105 5.08594 51.6112 5.25 52.3222 5.57812C53.0409 5.89844 53.6503 6.35156 54.1503 6.9375C54.6581 7.51562 55.0448 8.19922 55.3105 8.98828C55.5761 9.76953 55.7089 10.6172 55.7089 11.5312V11.8008C55.7089 12.7148 55.5761 13.5625 55.3105 14.3438C55.0448 15.125 54.6581 15.8086 54.1503 16.3945C53.6503 16.9727 53.0448 17.4258 52.3339 17.7539C51.6308 18.0742 50.8339 18.2344 49.9433 18.2344C49.0527 18.2344 48.2519 18.0742 47.5409 17.7539C46.83 17.4258 46.2206 16.9727 45.7128 16.3945C45.2128 15.8086 44.83 15.125 44.5644 14.3438C44.2987 13.5625 44.1659 12.7148 44.1659 11.8008ZM46.3339 11.5312V11.8008C46.3339 12.4336 46.4081 13.0312 46.5566 13.5938C46.705 14.1484 46.9277 14.6406 47.2245 15.0703C47.5292 15.5 47.9081 15.8398 48.3612 16.0898C48.8144 16.332 49.3417 16.4531 49.9433 16.4531C50.537 16.4531 51.0566 16.332 51.5019 16.0898C51.955 15.8398 52.33 15.5 52.6269 15.0703C52.9237 14.6406 53.1464 14.1484 53.2948 13.5938C53.4511 13.0312 53.5292 12.4336 53.5292 11.8008V11.5312C53.5292 10.9062 53.4511 10.3164 53.2948 9.76172C53.1464 9.19922 52.9198 8.70312 52.6152 8.27344C52.3183 7.83594 51.9433 7.49219 51.4902 7.24219C51.0448 6.99219 50.5214 6.86719 49.9198 6.86719C49.3261 6.86719 48.8027 6.99219 48.3495 7.24219C47.9042 7.49219 47.5292 7.83594 47.2245 8.27344C46.9277 8.70312 46.705 9.19922 46.5566 9.76172C46.4081 10.3164 46.3339 10.9062 46.3339 11.5312ZM64.6962 5.32031V6.98438H57.8408V5.32031H64.6962ZM60.1611 2.23828H62.3291V14.8594C62.3291 15.2891 62.3955 15.6133 62.5283 15.832C62.6611 16.0508 62.833 16.1953 63.0439 16.2656C63.2548 16.3359 63.4814 16.3711 63.7236 16.3711C63.9033 16.3711 64.0908 16.3555 64.2861 16.3242C64.4892 16.2852 64.6416 16.2539 64.7431 16.2305L64.7548 18C64.583 18.0547 64.3564 18.1055 64.0752 18.1523C63.8017 18.207 63.4697 18.2344 63.0791 18.2344C62.5478 18.2344 62.0595 18.1289 61.6142 17.918C61.1689 17.707 60.8134 17.3555 60.5478 16.8633C60.29 16.3633 60.1611 15.6914 60.1611 14.8477V2.23828ZM67.3906 11.8008V11.5312C67.3906 10.6172 67.5234 9.76953 67.7891 8.98828C68.0547 8.19922 68.4375 7.51562 68.9375 6.9375C69.4375 6.35156 70.043 5.89844 70.7539 5.57812C71.4648 5.25 72.2617 5.08594 73.1445 5.08594C74.0352 5.08594 74.8359 5.25 75.5469 5.57812C76.2656 5.89844 76.875 6.35156 77.375 6.9375C77.8828 7.51562 78.2695 8.19922 78.5352 8.98828C78.8008 9.76953 78.9336 10.6172 78.9336 11.5312V11.8008C78.9336 12.7148 78.8008 13.5625 78.5352 14.3438C78.2695 15.125 77.8828 15.8086 77.375 16.3945C76.875 16.9727 76.2695 17.4258 75.5586 17.7539C74.8555 18.0742 74.0586 18.2344 73.168 18.2344C72.2773 18.2344 71.4766 18.0742 70.7656 17.7539C70.0547 17.4258 69.4453 16.9727 68.9375 16.3945C68.4375 15.8086 68.0547 15.125 67.7891 14.3438C67.5234 13.5625 67.3906 12.7148 67.3906 11.8008ZM69.5586 11.5312V11.8008C69.5586 12.4336 69.6328 13.0312 69.7812 13.5938C69.9297 14.1484 70.1523 14.6406 70.4492 15.0703C70.7539 15.5 71.1328 15.8398 71.5859 16.0898C72.0391 16.332 72.5664 16.4531 73.168 16.4531C73.7617 16.4531 74.2812 16.332 74.7266 16.0898C75.1797 15.8398 75.5547 15.5 75.8516 15.0703C76.1484 14.6406 76.3711 14.1484 76.5195 13.5938C76.6758 13.0312 76.7539 12.4336 76.7539 11.8008V11.5312C76.7539 10.9062 76.6758 10.3164 76.5195 9.76172C76.3711 9.19922 76.1445 8.70312 75.8398 8.27344C75.543 7.83594 75.168 7.49219 74.7148 7.24219C74.2695 6.99219 73.7461 6.86719 73.1445 6.86719C72.5508 6.86719 72.0273 6.99219 71.5742 7.24219C71.1289 7.49219 70.7539 7.83594 70.4492 8.27344C70.1523 8.70312 69.9297 9.19922 69.7812 9.76172C69.6328 10.3164 69.5586 10.9062 69.5586 11.5312Z" fill="black"/>
</svg>
